<?xml version="1.0" encoding="utf-8"?>
<!-- Generator: Adobe Illustrator 28.0.0, SVG Export Plug-In . SVG Version: 6.00 Build 0)  -->
<svg version="1.1" id="Layer_1" xmlns="http://www.w3.org/2000/svg" xmlns:xlink="http://www.w3.org/1999/xlink" x="0px" y="0px"
	 viewBox="0 0 1000 1000" style="enable-background:new 0 0 1000 1000;" xml:space="preserve">
<g>
	<path d="M156.62,587.63c-60.61,0-116.28-32.62-152.78-89.51c-7.23-11.28-3.95-26.28,7.32-33.52c11.28-7.22,26.29-3.95,33.52,7.33
		c27.38,42.7,68.19,67.19,111.94,67.19h0.04c43.91-0.01,84.85-24.63,112.31-67.52c7.23-11.29,22.23-14.57,33.52-7.35
		c11.28,7.22,14.56,22.23,7.35,33.51c-36.56,57.1-92.39,89.86-153.16,89.88H156.62z"/>
	<g>
		<g>
			<path d="M548.67,638.68v-55.82h4.15v55.82H548.67z M550.66,612.69v-4.07h26.71v4.07H550.66z M550.74,586.93v-4.07h30.86v4.07
				H550.74z"/>
			<path d="M610.15,639.48c-4.15,0-7.83-0.94-11.04-2.83c-3.22-1.89-5.74-4.47-7.58-7.74c-1.83-3.27-2.75-7-2.75-11.2
				c0-4.15,0.92-7.83,2.75-11.04c1.83-3.21,4.36-5.75,7.58-7.62c3.21-1.86,6.9-2.79,11.04-2.79c4.2,0,7.89,0.93,11.08,2.79
				c3.19,1.86,5.69,4.4,7.5,7.62c1.81,3.22,2.71,6.9,2.71,11.04c0,4.2-0.91,7.94-2.71,11.2c-1.81,3.27-4.31,5.85-7.5,7.74
				C618.04,638.54,614.35,639.48,610.15,639.48z M610.15,635.65c3.35,0,6.32-0.77,8.93-2.31c2.6-1.54,4.64-3.67,6.1-6.38
				c1.46-2.71,2.19-5.79,2.19-9.25c0-3.45-0.73-6.5-2.19-9.13c-1.46-2.63-3.5-4.7-6.1-6.22c-2.61-1.51-5.58-2.27-8.93-2.27
				s-6.33,0.76-8.93,2.27c-2.61,1.52-4.65,3.6-6.14,6.26c-1.49,2.66-2.23,5.69-2.23,9.09c0,3.46,0.74,6.54,2.23,9.25
				c1.49,2.71,3.54,4.84,6.14,6.38C603.82,634.88,606.8,635.65,610.15,635.65z"/>
			<path d="M640.21,638.68v-41.86h3.99l0.08,11.24l-0.56-1.04c0.43-1.86,1.25-3.6,2.47-5.22c1.22-1.62,2.79-2.95,4.71-3.99
				c1.91-1.04,4.07-1.55,6.46-1.55c0.9,0,1.77,0.07,2.59,0.2c0.82,0.13,1.5,0.31,2.03,0.52l-1.12,4.31c-0.8-0.27-1.58-0.46-2.35-0.6
				c-0.77-0.13-1.48-0.2-2.11-0.2c-1.86,0-3.54,0.37-5.02,1.12c-1.49,0.75-2.77,1.74-3.83,2.99c-1.07,1.25-1.86,2.6-2.39,4.07
				c-0.53,1.46-0.8,2.94-0.8,4.42v25.6H640.21z"/>
			<path d="M692.76,638.68v-55.82h22.01c3.19,0,5.91,0.59,8.17,1.75c2.26,1.17,4,2.78,5.22,4.82c1.22,2.05,1.83,4.4,1.83,7.06
				c0,3.3-1.05,6.14-3.15,8.53c-2.1,2.39-4.9,3.94-8.41,4.63l-0.32-1.28c3.19,0.32,5.89,1.16,8.09,2.51c2.2,1.36,3.88,3.06,5.02,5.1
				c1.14,2.05,1.71,4.37,1.71,6.98c0,2.34-0.36,4.47-1.08,6.38c-0.72,1.91-1.83,3.56-3.35,4.94c-1.51,1.38-3.42,2.46-5.7,3.23
				c-2.29,0.77-5,1.16-8.13,1.16H692.76z M696.9,607.58h17.38c2.18,0,4.13-0.46,5.86-1.4c1.73-0.93,3.1-2.18,4.11-3.75
				c1.01-1.57,1.51-3.36,1.51-5.38c0-2.98-1.04-5.41-3.11-7.3c-2.07-1.89-4.92-2.83-8.53-2.83H696.9V607.58z M696.9,634.62h17.78
				c4.89,0,8.44-1.08,10.64-3.23c2.21-2.15,3.31-4.9,3.31-8.25c0-2.29-0.56-4.28-1.67-5.98c-1.12-1.7-2.7-3.04-4.74-4.03
				c-2.05-0.98-4.56-1.47-7.53-1.47H696.9V634.62z"/>
			<path d="M757.91,639.48c-3.14,0-5.82-0.61-8.05-1.83c-2.23-1.22-3.95-3.06-5.14-5.5c-1.2-2.45-1.79-5.53-1.79-9.25v-26.08h4.07
				v25.2c0,4.68,1.06,8.15,3.19,10.41c2.13,2.26,5.13,3.39,9.01,3.39c1.81,0,3.48-0.36,5.02-1.08c1.54-0.72,2.91-1.61,4.11-2.67
				c1.2-1.06,2.13-2.22,2.79-3.47c0.66-1.25,1-2.4,1-3.47v-28.31h4.07v41.86h-3.91l-0.16-9.41l0.96-0.4
				c-0.64,1.91-1.7,3.68-3.19,5.3c-1.49,1.62-3.26,2.91-5.3,3.87S760.3,639.48,757.91,639.48z"/>
			<path d="M801.68,639.48c-3.51,0-6.7-0.65-9.57-1.95c-2.87-1.3-5.13-3.07-6.78-5.3l2.87-2.39c1.54,1.86,3.47,3.35,5.78,4.47
				c2.31,1.12,4.98,1.67,8.01,1.67c1.75,0,3.28-0.21,4.58-0.64c1.3-0.43,2.38-1.01,3.23-1.75c0.85-0.75,1.47-1.62,1.87-2.63
				c0.4-1.01,0.6-2.05,0.6-3.11c0-2.13-0.91-3.83-2.71-5.1c-0.91-0.69-2.07-1.3-3.51-1.83c-1.44-0.53-3.14-1.04-5.1-1.52
				c-2.66-0.64-4.93-1.38-6.82-2.23c-1.89-0.85-3.42-1.83-4.58-2.95c-0.91-0.9-1.6-1.9-2.07-2.99c-0.48-1.09-0.72-2.3-0.72-3.63
				c0-2.23,0.6-4.2,1.8-5.9c1.2-1.7,2.87-3.03,5.02-3.99s4.64-1.44,7.46-1.44c1.91,0,3.77,0.27,5.58,0.8
				c1.81,0.53,3.51,1.29,5.1,2.27c1.59,0.98,2.98,2.22,4.15,3.71l-2.47,2.71c-1.12-1.22-2.33-2.28-3.63-3.19
				c-1.3-0.9-2.68-1.6-4.15-2.07c-1.46-0.48-2.94-0.72-4.42-0.72c-1.65,0-3.12,0.19-4.43,0.56c-1.3,0.37-2.41,0.89-3.31,1.55
				c-0.9,0.67-1.58,1.46-2.03,2.39c-0.45,0.93-0.68,1.98-0.68,3.15c0.05,0.8,0.25,1.6,0.6,2.39c0.35,0.8,0.86,1.49,1.56,2.07
				c0.85,0.69,2.06,1.36,3.63,1.99c1.57,0.64,3.44,1.2,5.62,1.67c2.44,0.59,4.55,1.24,6.3,1.96s3.21,1.58,4.39,2.59
				c1.12,0.96,1.94,2.05,2.47,3.27c0.53,1.22,0.8,2.66,0.8,4.31c0,2.39-0.61,4.47-1.83,6.22c-1.22,1.75-2.9,3.12-5.02,4.11
				C807.13,638.99,804.61,639.48,801.68,639.48z"/>
			<path d="M829.12,586.45c-1.12,0-1.97-0.31-2.55-0.92c-0.59-0.61-0.88-1.42-0.88-2.43s0.29-1.81,0.88-2.39
				c0.59-0.59,1.44-0.88,2.55-0.88c1.01,0,1.82,0.29,2.43,0.88c0.61,0.59,0.92,1.38,0.92,2.39c0,0.96-0.28,1.75-0.84,2.39
				C831.07,586.13,830.23,586.45,829.12,586.45z M827.04,638.68v-41.86h4.07v41.86H827.04z"/>
			<path d="M843.63,638.68v-41.86h3.99l0.08,9.25l-0.96,0.56c0.59-1.86,1.66-3.57,3.23-5.14c1.57-1.57,3.47-2.83,5.7-3.79
				c2.23-0.96,4.55-1.44,6.94-1.44c3.14,0,5.79,0.59,7.97,1.75c2.18,1.17,3.84,2.98,4.98,5.42c1.14,2.45,1.71,5.56,1.71,9.33v25.92
				h-4.07v-25.76c0-3.03-0.44-5.5-1.32-7.42c-0.88-1.91-2.18-3.31-3.91-4.19s-3.84-1.29-6.34-1.24c-2.02,0-3.88,0.33-5.58,1
				c-1.7,0.67-3.18,1.53-4.42,2.59c-1.25,1.06-2.22,2.18-2.91,3.35c-0.69,1.17-1.04,2.26-1.04,3.27v28.39h-1.99
				c-0.27,0-0.59,0-0.96,0S844,638.68,843.63,638.68z"/>
			<path d="M906.94,639.48c-4.15,0-7.8-0.93-10.96-2.79c-3.16-1.86-5.63-4.41-7.42-7.66s-2.67-6.96-2.67-11.16
				c0-3.19,0.49-6.1,1.47-8.73c0.98-2.63,2.37-4.92,4.15-6.86c1.78-1.94,3.92-3.43,6.42-4.47c2.5-1.04,5.24-1.55,8.21-1.55
				c2.66,0,5.12,0.47,7.38,1.4c2.26,0.93,4.23,2.25,5.9,3.95c1.67,1.7,2.95,3.75,3.83,6.14c0.88,2.39,1.26,5.05,1.16,7.97
				l-0.08,2.63h-35.64l-0.64-3.51h33.17l-0.96,1.36v-1.99c0-2.76-0.65-5.21-1.95-7.34c-1.3-2.13-3-3.79-5.1-4.98
				s-4.42-1.79-6.98-1.79c-3.35,0-6.25,0.73-8.69,2.19c-2.45,1.46-4.32,3.51-5.62,6.14c-1.3,2.63-1.95,5.73-1.95,9.29
				c0,3.56,0.73,6.69,2.19,9.37c1.46,2.68,3.48,4.78,6.06,6.3c2.58,1.51,5.59,2.27,9.05,2.27c2.5,0,4.82-0.43,6.98-1.28
				c2.15-0.85,4.19-2.18,6.1-3.99l2.07,2.95c-1.28,1.22-2.74,2.3-4.39,3.23c-1.65,0.93-3.42,1.65-5.3,2.15
				C910.84,639.23,908.91,639.48,906.94,639.48z"/>
			<path d="M947.13,639.48c-3.51,0-6.7-0.65-9.57-1.95c-2.87-1.3-5.13-3.07-6.78-5.3l2.87-2.39c1.54,1.86,3.47,3.35,5.78,4.47
				c2.31,1.12,4.98,1.67,8.01,1.67c1.75,0,3.28-0.21,4.58-0.64c1.3-0.43,2.38-1.01,3.23-1.75c0.85-0.75,1.47-1.62,1.87-2.63
				c0.4-1.01,0.6-2.05,0.6-3.11c0-2.13-0.91-3.83-2.71-5.1c-0.91-0.69-2.07-1.3-3.51-1.83c-1.44-0.53-3.14-1.04-5.1-1.52
				c-2.66-0.64-4.93-1.38-6.82-2.23c-1.89-0.85-3.42-1.83-4.58-2.95c-0.91-0.9-1.6-1.9-2.07-2.99c-0.48-1.09-0.72-2.3-0.72-3.63
				c0-2.23,0.6-4.2,1.8-5.9c1.2-1.7,2.87-3.03,5.02-3.99s4.64-1.44,7.46-1.44c1.91,0,3.77,0.27,5.58,0.8
				c1.81,0.53,3.51,1.29,5.1,2.27c1.59,0.98,2.98,2.22,4.15,3.71l-2.47,2.71c-1.12-1.22-2.33-2.28-3.63-3.19
				c-1.3-0.9-2.68-1.6-4.15-2.07c-1.46-0.48-2.94-0.72-4.42-0.72c-1.65,0-3.12,0.19-4.43,0.56c-1.3,0.37-2.41,0.89-3.31,1.55
				c-0.9,0.67-1.58,1.46-2.03,2.39c-0.45,0.93-0.68,1.98-0.68,3.15c0.05,0.8,0.25,1.6,0.6,2.39c0.35,0.8,0.86,1.49,1.56,2.07
				c0.85,0.69,2.06,1.36,3.63,1.99c1.57,0.64,3.44,1.2,5.62,1.67c2.44,0.59,4.55,1.24,6.3,1.96s3.21,1.58,4.39,2.59
				c1.12,0.96,1.94,2.05,2.47,3.27c0.53,1.22,0.8,2.66,0.8,4.31c0,2.39-0.61,4.47-1.83,6.22c-1.22,1.75-2.9,3.12-5.02,4.11
				C952.58,638.99,950.05,639.48,947.13,639.48z"/>
			<path d="M985.33,639.48c-3.51,0-6.7-0.65-9.57-1.95c-2.87-1.3-5.13-3.07-6.78-5.3l2.87-2.39c1.54,1.86,3.47,3.35,5.78,4.47
				c2.31,1.12,4.98,1.67,8.01,1.67c1.75,0,3.28-0.21,4.58-0.64c1.3-0.43,2.38-1.01,3.23-1.75c0.85-0.75,1.47-1.62,1.87-2.63
				c0.4-1.01,0.6-2.05,0.6-3.11c0-2.13-0.91-3.83-2.71-5.1c-0.91-0.69-2.07-1.3-3.51-1.83c-1.44-0.53-3.14-1.04-5.1-1.52
				c-2.66-0.64-4.93-1.38-6.82-2.23c-1.89-0.85-3.42-1.83-4.58-2.95c-0.91-0.9-1.6-1.9-2.07-2.99c-0.48-1.09-0.72-2.3-0.72-3.63
				c0-2.23,0.6-4.2,1.8-5.9c1.2-1.7,2.87-3.03,5.02-3.99s4.64-1.44,7.46-1.44c1.91,0,3.77,0.27,5.58,0.8
				c1.81,0.53,3.51,1.29,5.1,2.27c1.59,0.98,2.98,2.22,4.15,3.71l-2.47,2.71c-1.12-1.22-2.33-2.28-3.63-3.19
				c-1.3-0.9-2.68-1.6-4.15-2.07c-1.46-0.48-2.94-0.72-4.42-0.72c-1.65,0-3.12,0.19-4.43,0.56c-1.3,0.37-2.41,0.89-3.31,1.55
				c-0.9,0.67-1.58,1.46-2.03,2.39c-0.45,0.93-0.68,1.98-0.68,3.15c0.05,0.8,0.25,1.6,0.6,2.39c0.35,0.8,0.86,1.49,1.56,2.07
				c0.85,0.69,2.06,1.36,3.63,1.99c1.57,0.64,3.44,1.2,5.62,1.67c2.44,0.59,4.55,1.24,6.3,1.96s3.21,1.58,4.39,2.59
				c1.12,0.96,1.94,2.05,2.47,3.27c0.53,1.22,0.8,2.66,0.8,4.31c0,2.39-0.61,4.47-1.83,6.22c-1.22,1.75-2.9,3.12-5.02,4.11
				C990.77,638.99,988.25,639.48,985.33,639.48z"/>
		</g>
		<g>
			<path d="M787.36,532.68c-0.94,0.14-1.35,0.26-1.76,0.26c-19.64-0.04-39.32,0.67-58.91-0.34c-24.39-1.27-41.81-14.06-50.56-36.78
				c-8.97-23.29-4.06-44.65,13.77-62.06c16.57-16.18,36.84-20.55,58.69-13.09c22.07,7.53,34.66,23.8,38.46,46.77
				c0.52,3.12,0.52,6.34,0.52,9.52c0.05,17.29,0.03,34.58,0.01,51.87C787.6,530.04,787.45,531.25,787.36,532.68 M770.13,515.31
				c0.11-1.06,0.25-1.73,0.25-2.41c0.01-12.44,0.07-24.89-0.04-37.33c-0.03-3.02-0.36-6.09-1.01-9.04
				c-5.01-22.58-26.91-34.56-45.66-31.16c-15.41,2.79-26.3,11.39-31.65,26.1c-5.28,14.53-2.71,28.14,7.28,39.97
				c8.27,9.79,19.23,14.07,31.93,14.1c11.89,0.02,23.78,0.01,35.67,0C767.85,515.54,768.79,515.41,770.13,515.31"/>
			<path d="M565.83,434.5v98.3c-5.88,0.32-11.43,0.19-17.17,0.1V417.5c1.45-0.08,2.66-0.2,3.87-0.2
				c15.07-0.01,30.15-0.06,45.22,0.01c17.72,0.08,32.25,6.8,42.93,21.15c6.11,8.21,9.53,17.56,9.66,27.76
				c0.26,21.43,0.11,42.87,0.11,64.31c0,0.66-0.19,1.32-0.33,2.21h-17.09v-4.57c0-19.78-0.01-39.56,0-59.33
				c0.01-10.28-3.79-18.84-11.46-25.67c-4.99-4.44-10.74-7.59-17.44-7.87C591.59,434.78,579.03,434.75,565.83,434.5"/>
			<path d="M833.56,532.73h-16.8c-0.09-1.42-0.22-2.62-0.22-3.81c-0.01-42.33-0.03-84.65,0.01-126.97
				c0.01-14.05,5.85-25.26,16.83-33.62c17.37-13.22,43.57-9.18,56.43,8.52c0.46,0.64,0.84,1.34,1.51,2.42
				c-4.46,3.22-8.79,6.35-13.38,9.66c-1.11-1.24-2.15-2.42-3.22-3.57c-6.51-6.99-14.55-9.2-23.52-6.79
				c-9.15,2.46-14.95,8.71-17.22,18.14c-0.22,0.92-0.42,1.87-0.43,2.81c-0.05,8.98-0.06,17.96-0.06,26.94
				c0,0.37,0.21,0.75,0.46,1.57h19.14h19.76c0.24,5.67,0.07,11.04,0.1,16.92c-4.43,0.31-8.68,0.12-12.92,0.16
				c-4.43,0.03-8.86,0.01-13.29,0.01h-13.21V532.73z"/>
			<path d="M896.1,514.84c5.34-2,10.23-3.83,15.21-5.7c0.79,0.84,1.43,1.54,2.09,2.22c4.84,4.99,11.36,6.44,17.46,3.88
				c5.97-2.49,9.61-7.86,9.65-14.23c0.05-6.48-3.89-12.27-10.16-14.81c-5.51-2.23-11.08-4.32-16.58-6.56
				c-10.42-4.25-17.3-11.75-20.1-22.69c-4.02-15.76,4.86-32.31,20.24-37.69c17.58-6.15,33.64,3.21,39.69,16.19
				c-4.99,1.89-9.95,3.77-15.39,5.83c-0.82-1-1.58-2.17-2.58-3.08c-4.7-4.25-10.14-5.65-16.13-3.4c-6.15,2.31-9.54,7.07-10.14,13.5
				c-0.57,6.16,2.07,11.04,7.3,14.37c1.62,1.03,3.43,1.79,5.22,2.5c5.13,2.06,10.35,3.91,15.44,6.07
				c12.89,5.47,20.93,18.47,19.73,31.67c-1.31,14.49-11.07,25.94-24.9,29.22c-13.46,3.19-28.1-3.07-34.95-14.95
				C896.86,516.6,896.62,515.97,896.1,514.84"/>
			<path d="M999.76,532.82h-16.52c-0.82-3.12-1.16-107.16-0.38-115.18h16.89V532.82z"/>
			<path d="M991.4,377.68c-4.9,0.05-8.74-3.7-8.77-8.56c-0.03-4.8,3.9-8.66,8.76-8.61c4.65,0.05,8.5,3.81,8.61,8.39
				C1000.11,373.67,996.23,377.63,991.4,377.68"/>
		</g>
		<path d="M423.74,638.68c-3.3,0-5.97-2.9-5.97-6.47V423.39c0-3.57,2.67-6.47,5.97-6.47c3.3,0,5.97,2.9,5.97,6.47v208.83
			C429.71,635.79,427.04,638.68,423.74,638.68"/>
	</g>
</g>
</svg>
