<svg width="134" height="29" viewBox="0 0 134 29" fill="none" xmlns="http://www.w3.org/2000/svg">
<path d="M0.28377 12.669C-0.249463 11.8755 -0.00864823 10.8148 0.817003 10.2969C1.64265 9.78745 2.74352 10.0213 3.27676 10.8148C5.28928 13.8299 8.27367 15.5672 11.4817 15.5672C14.6983 15.5672 17.6999 13.8216 19.721 10.7897C20.2542 9.98791 21.3551 9.7624 22.1807 10.2719C23.0064 10.7814 23.2472 11.8421 22.7226 12.6439C20.0392 16.6781 15.9453 19 11.4903 19C7.04379 19 2.95854 16.6948 0.28377 12.669Z" fill="#25A6AA"/>
<path d="M39.5 25C39.225 25 39 24.9222 39 24.8271V4.17291C39 4.07781 39.225 4 39.5 4C39.775 4 40 4.07781 40 4.17291V24.8271C40 24.9222 39.775 25 39.5 25Z" fill="#25A6AA"/>
<path d="M94.0509 26.0583C94.0681 25.8814 94.0939 25.7718 94.0939 25.6623C94.0939 23.6065 94.1024 21.5508 94.0939 19.495C94.0939 18.9979 94.0337 18.484 93.9221 18.0037C93.072 14.2713 89.3536 12.2914 86.1762 12.8559C83.5571 13.3193 81.7108 14.7347 80.8091 17.1696C79.916 19.5708 80.3454 21.8204 82.0457 23.775C83.4454 25.3927 85.3089 26.1004 87.4644 26.1088C89.4824 26.1088 91.5005 26.1088 93.5185 26.1088C93.6817 26.1088 93.8362 26.0836 94.0681 26.0667M96.9706 28.9229C96.8075 28.9482 96.7388 28.965 96.6701 28.965C93.3382 28.965 89.9977 29.0745 86.6743 28.906C82.5352 28.6954 79.5811 26.5807 78.0955 22.823C76.5755 18.9726 77.4085 15.4424 80.4313 12.5694C83.2479 9.89862 86.6829 9.17404 90.3927 10.4041C94.1368 11.6511 96.2751 14.3387 96.9191 18.1385C97.005 18.6525 97.005 19.1833 97.005 19.7141C97.005 22.5702 97.005 25.4264 97.005 28.291C97.005 28.4932 96.9792 28.687 96.9621 28.9313M58.9111 12.6958V28.9397C57.915 28.9903 56.9704 28.9734 56 28.9566V9.89019C56.249 9.87334 56.4551 9.85649 56.6612 9.85649C59.2203 9.85649 61.7793 9.84807 64.3384 9.85649C67.344 9.87334 69.8086 10.9771 71.6205 13.353C72.6596 14.7094 73.235 16.2513 73.2607 17.9448C73.3037 21.4834 73.2779 25.0304 73.2779 28.5774C73.2779 28.687 73.2436 28.7965 73.2264 28.9397H70.3238V28.1815C70.3238 24.9125 70.3238 21.6434 70.3238 18.3744C70.3238 16.6725 69.6798 15.2655 68.3831 14.1365C67.5329 13.4035 66.5625 12.8812 65.4204 12.839C63.2907 12.7548 61.161 12.7464 58.9197 12.7042M105.137 28.9313H102.2C102.183 28.6954 102.157 28.4932 102.157 28.291C102.157 21.1801 102.157 14.0691 102.157 6.9582C102.157 4.59912 103.179 2.71186 105.103 1.31327C108.143 -0.911006 112.729 -0.228559 114.97 2.74556C115.047 2.85509 115.116 2.97304 115.236 3.14998C114.455 3.68919 113.699 4.21999 112.9 4.77605C112.703 4.56542 112.523 4.37164 112.334 4.17786C111.191 3.00675 109.792 2.62761 108.22 3.04045C106.623 3.45329 105.601 4.50644 105.206 6.0904C105.172 6.24205 105.129 6.40213 105.129 6.56221C105.129 8.07033 105.12 9.57846 105.12 11.0866C105.12 11.1456 105.154 11.213 105.197 11.3478H112.007C112.05 12.2998 112.016 13.2013 112.024 14.1955C111.252 14.2461 110.504 14.2124 109.766 14.2208C108.993 14.2208 108.22 14.2208 107.439 14.2208H105.129V28.9397L105.137 28.9313ZM115.897 25.974C116.808 25.6455 117.632 25.3421 118.482 25.0304C118.62 25.1736 118.723 25.2832 118.834 25.3927C119.659 26.2184 120.766 26.4543 121.797 26.033C122.81 25.6202 123.429 24.7355 123.437 23.6824C123.437 22.6124 122.776 21.6519 121.711 21.239C120.775 20.8683 119.83 20.5229 118.894 20.1522C117.125 19.4529 115.957 18.2059 115.485 16.4029C114.807 13.7995 116.31 11.0613 118.92 10.1767C121.9 9.15719 124.631 10.7074 125.653 12.8559C124.803 13.1676 123.961 13.4794 123.042 13.8164C122.905 13.6479 122.776 13.4541 122.604 13.3109C121.806 12.6116 120.887 12.3756 119.865 12.7464C118.826 13.1255 118.242 13.9175 118.147 14.9791C118.053 15.9985 118.499 16.8073 119.384 17.355C119.659 17.5235 119.968 17.6499 120.268 17.7678C121.136 18.1048 122.029 18.4166 122.888 18.7704C125.077 19.6719 126.434 21.8204 126.237 24.0025C126.013 26.3953 124.356 28.291 122.012 28.8302C119.727 29.361 117.246 28.3247 116.078 26.3616C116.018 26.2689 115.983 26.1594 115.889 25.974M133.957 28.9482H131.157C131.02 28.4342 130.96 11.2382 131.097 9.91547H133.965V28.9482H133.957ZM132.54 2.85509C131.707 2.85509 131.054 2.24005 131.054 1.43965C131.054 0.64767 131.715 0.00734895 132.54 0.0157742C133.33 0.0241995 133.982 0.64767 134 1.40594C134.017 2.18949 133.364 2.84667 132.54 2.85509Z" fill="#25A6AA"/>
</svg>
